Coordinates
version=1
nRows=49
nColumns=12
inDegrees=yes

Units are S.I. units (second, meters, Newtons, ...)
Angles are in degrees

endheader
time	SC_y	SC_z	SC_x	AC_y	AC_z	AC_x	GH_y	GH_z	GH_yy	EL_x	PS_y
       0.0              -45.85          5.986          22.19          64.28          7.524           2.67          40.69          76.65          130.7          56.89          29.93
   0.01769              -45.85          5.991           22.2          64.28          7.522          2.667          40.66          76.65          130.7          56.89          29.93
   0.03538              -45.85          5.995          22.21          64.28          7.521          2.664          40.63          76.65          130.7          56.89          29.93
   0.05308              -45.84            6.0          22.22          64.27           7.52          2.661          40.59          76.65          130.7          56.89          29.93
   0.07077              -45.84          6.006          22.22          64.27          7.518          2.657          40.55          76.65          130.6          56.89          29.93
   0.08846              -45.84          6.011          22.23          64.26          7.517          2.653          40.52          76.65          130.6          56.89          29.93
    0.1062              -45.83          6.017          22.24          64.25          7.515          2.649          40.47          76.65          130.6           56.9          29.93
    0.1238              -45.83          6.024          22.25          64.25          7.513          2.645          40.43          76.65          130.5           56.9          29.93
    0.1415              -45.83          6.031          22.26          64.24          7.512           2.64          40.38          76.65          130.5           56.9          29.93
    0.1592              -45.82          6.038          22.27          64.23           7.51          2.635          40.33          76.65          130.5           56.9          29.93
    0.1769              -45.82          6.046          22.28          64.23          7.507           2.63          40.28          76.66          130.4           56.9          29.93
    0.1946              -45.81          6.055          22.29          64.22          7.505          2.624          40.22          76.66          130.4          56.91          29.93
    0.2123              -45.81          6.064          22.31          64.21          7.503          2.618          40.16          76.66          130.3          56.91          29.93
      0.23               -45.8          6.075          22.32           64.2            7.5          2.612          40.09          76.66          130.3          56.91          29.93
    0.2477              -45.79          6.085          22.34          64.19          7.497          2.604          40.01          76.66          130.2          56.91          29.93
    0.2654              -45.79          6.097          22.36          64.18          7.494          2.596          39.93          76.66          130.2          56.92          29.93
    0.2831              -45.78           6.11          22.37          64.16           7.49          2.588          39.85          76.66          130.1          56.92          29.93
    0.3008              -45.77          6.124          22.39          64.15          7.487          2.579          39.75          76.67          130.0          56.92          29.93
    0.3185              -45.76          6.139          22.42          64.13          7.482          2.569          39.65          76.67          129.9          56.93          29.93
    0.3362              -45.75          6.156          22.44          64.12          7.478          2.558          39.54          76.67          129.9          56.93          29.93
    0.3538              -45.74          6.174          22.47           64.1          7.473          2.545          39.41          76.67          129.8          56.94          29.93
    0.3715              -45.73          6.195           22.5          64.08          7.468          2.532          39.27          76.67          129.6          56.94          29.93
    0.3892              -45.71          6.217          22.53          64.06          7.462          2.517          39.12          76.68          129.5          56.95          29.93
    0.4069               -45.7          6.242          22.57          64.03          7.455          2.501          38.96          76.68          129.4          56.96          29.93
    0.4246              -45.68          6.269          22.61          64.01          7.448          2.483          38.77          76.68          129.3          56.96          29.93
    0.4423              -45.66            6.3          22.65          63.98          7.439          2.462          38.56          76.69          129.1          56.97          29.93
      0.46              -45.64          6.334           22.7          63.94           7.43           2.44          38.33          76.69          128.9          56.98          29.92
    0.4777              -45.62          6.373          22.76          63.91           7.42          2.414          38.07           76.7          128.7          56.99          29.92
    0.4954              -45.59          6.417          22.82          63.86          7.408          2.385          37.77           76.7          128.5           57.0          29.92
    0.5131              -45.56          6.466          22.89          63.81          7.395          2.352          37.43          76.71          128.2          57.01          29.92
    0.5308              -45.53          6.523          22.97          63.76           7.38          2.315          37.05          76.71          127.9          57.03          29.92
    0.5485              -45.49          6.588          23.07          63.69          7.362          2.272          36.61          76.72          127.6          57.05          29.92
    0.5662              -45.44          6.663          23.18          63.62          7.342          2.222           36.1          76.73          127.2          57.07          29.92
    0.5838              -45.39           6.75           23.3          63.54          7.319          2.165          35.51          76.74          126.7          57.09          29.92
    0.6015              -45.33          6.852          23.45          63.44          7.292          2.097          34.82          76.75          126.2          57.12          29.92
    0.6192              -45.25          6.972          23.62          63.32          7.259          2.018          34.01          76.77          125.5          57.15          29.92
    0.6369              -45.17          7.115          23.83          63.18          7.221          1.923          33.04          76.79          124.8          57.19          29.92
    0.6546              -45.06          7.287          24.08          63.01          7.175           1.81          31.88          76.81          123.9          57.23          29.92
    0.6723              -44.94          7.494          24.38          62.81           7.12          1.673          30.47          76.83          122.8          57.29          29.92
      0.69              -44.78          7.747          24.75          62.56          7.052          1.505          28.76          76.86          121.4          57.35          29.92
    0.7077              -44.59           8.06           25.2          62.25          6.968          1.298          26.64           76.9          119.8          57.44          29.91
    0.7254              -44.35          8.449          25.77          61.87          6.864          1.041           24.0          76.95          117.7          57.54          29.91
    0.7431              -44.06           8.94          26.48          61.39          6.732          0.716          20.68          77.01          115.1          57.67          29.91
    0.7608              -43.68          9.564          27.38          60.78          6.565         0.3032          16.45          77.08          111.9          57.84           29.9
    0.7785              -43.19          10.36          28.54          59.99          6.351        -0.2251          11.04          77.18          107.6          58.05           29.9
    0.7962              -42.57          11.39          30.03          58.99          6.077        -0.9031          4.096          77.31          102.2          58.32          29.89
    0.8138              -41.77           12.7          31.93           57.7          5.726         -1.769         -4.772          77.47          95.31          58.67          29.88
    0.8315              -40.77          14.34          34.31          56.09          5.285         -2.858         -15.92          77.67          86.61          59.11          29.87
    0.8492              -39.55          16.35          37.22          54.12          4.747         -4.185         -29.51          77.91          76.02          59.64          29.86
